{
  "accessors": [
    {
      "bufferView": 2,
      "componentType": 5126,
      "count": 1955,
      "max": [
        0.13244608044624329,
        0.1676320880651474,
        1.6997947692871094
      ],
      "min": [
        -0.13244608044624329,
        -0.156203031539917,
        1.4938063621520996
      ],
      "type": "VEC3"
    },
    {
      "bufferView": 2,
      "byteOffset": 23460,
      "componentType": 5126,
      "count": 1955,
      "max": [
        1.0,
        1.0,
        1.0
      ],
      "min": [
        -1.0,
        -1.0,
        -1.0
      ],
      "type": "VEC3"
    },
    {
      "bufferView": 1,
      "componentType": 5126,
      "count": 1955,
      "max": [
        0.9915146231651306,
        0.961091160774231
      ],
      "min": [
        0.00848531723022461,
        0.00848531723022461
      ],
      "type": "VEC2"
    },
    {
      "bufferView": 0,
      "componentType": 5125,
      "count": 7464,
      "type": "SCALAR"
    },
    {
      "bufferView": 2,
      "byteOffset": 46920,
      "componentType": 5126,
      "count": 78,
      "max": [
        0.07573938369750977,
        0.12951062619686127,
        1.5683162212371826
      ],
      "min": [
        -0.07573938369750977,
        0.12549589574337006,
        1.5128787755966187
      ],
      "type": "VEC3"
    },
    {
      "bufferView": 2,
      "byteOffset": 47856,
      "componentType": 5126,
      "count": 78,
      "max": [
        4.229292699164944e-06,
        1.0,
        3.287516847194638e-06
      ],
      "min": [
        -4.229292699164944e-06,
        1.0,
        -3.883319550368469e-06
      ],
      "type": "VEC3"
    },
    {
      "bufferView": 1,
      "byteOffset": 15640,
      "componentType": 5126,
      "count": 78,
      "max": [
        0.8145281076431274,
        0.9779748916625977
      ],
      "min": [
        0.13229894638061523,
        0.15510088205337524
      ],
      "type": "VEC2"
    },
    {
      "bufferView": 0,
      "byteOffset": 29856,
      "componentType": 5125,
      "count": 216,
      "type": "SCALAR"
    }
  ],
  "asset": {
    "extras": {
      "author": "ayumi ikeda (https://sketchfab.com/rxf10240)",
      "license": "CC-BY-4.0 (http://creativecommons.org/licenses/by/4.0/)",
      "source": "https://sketchfab.com/3d-models/perman1-blue-eff17aa5ba614830bbe5db28e4ea119e",
      "title": "Perman1_Blue💮📷"
    },
    "generator": "Sketchfab-14.91.0",
    "version": "2.0"
  },
  "bufferViews": [
    {
      "buffer": 0,
      "byteLength": 30720,
      "name": "floatBufferViews",
      "target": 34963
    },
    {
      "buffer": 0,
      "byteLength": 16264,
      "byteOffset": 30720,
      "byteStride": 8,
      "name": "floatBufferViews",
      "target": 34962
    },
    {
      "buffer": 0,
      "byteLength": 48792,
      "byteOffset": 46984,
      "byteStride": 12,
      "name": "floatBufferViews",
      "target": 34962
    }
  ],
  "buffers": [
    {
      "byteLength": 95776,
      "uri": "scene.bin"
    }
  ],
  "images": [
    {
      "uri": "textures/Perman_Blue.met_baseColor.png"
    },
    {
      "uri": "textures/Perman_Blue.lens_baseColor.png"
    }
  ],
  "materials": [
    {
      "doubleSided": true,
      "name": "Perman_Blue.met",
      "pbrMetallicRoughness": {
        "baseColorTexture": {
          "index": 0
        },
        "metallicFactor": 0.0,
        "roughnessFactor": 0.0
      }
    },
    {
      "alphaMode": "BLEND",
      "doubleSided": true,
      "name": "Perman_Blue.lens",
      "pbrMetallicRoughness": {
        "baseColorTexture": {
          "index": 1
        },
        "roughnessFactor": 0.13599736684911812
      }
    }
  ],
  "meshes": [
    {
      "name": "Perman_Blue_Perman_Blue.met_0",
      "primitives": [
        {
          "attributes": {
            "NORMAL": 1,
            "POSITION": 0,
            "TEXCOORD_0": 2
          },
          "indices": 3,
          "material": 0,
          "mode": 4
        }
      ]
    },
    {
      "name": "Perman_Blue_Perman_Blue.lens_0",
      "primitives": [
        {
          "attributes": {
            "NORMAL": 5,
            "POSITION": 4,
            "TEXCOORD_0": 6
          },
          "indices": 7,
          "material": 1,
          "mode": 4
        }
      ]
    }
  ],
  "nodes": [
    {
      "children": [
        1
      ],
      "matrix": [
        1.0,
        0.0,
        0.0,
        0.0,
        0.0,
        2.220446049250313e-16,
        -1.0,
        0.0,
        0.0,
        1.0,
        2.220446049250313e-16,
        0.0,
        0.0,
        0.0,
        0.0,
        1.0
      ],
      "name": "Sketchfab_model"
    },
    {
      "children": [
        2
      ],
      "matrix": [
        0.009999999776482582,
        0.0,
        0.0,
        0.0,
        0.0,
        0.0,
        0.009999999776482582,
        0.0,
        0.0,
        -0.009999999776482582,
        0.0,
        0.0,
        0.0,
        0.0,
        0.0,
        1.0
      ],
      "name": "Perman_Blue.fbx"
    },
    {
      "children": [
        3
      ],
      "name": "RootNode"
    },
    {
      "children": [
        4,
        5
      ],
      "matrix": [
        -99.99999999999925,
        -8.742277980456455e-06,
        8.74227694680484e-06,
        0.0,
        8.742276564667676e-06,
        4.3711397612611336e-06,
        99.99999999999952,
        0.0,
        -8.742278362593557e-06,
        99.99999999999952,
        -4.371139006309477e-06,
        0.0,
        0.0,
        0.0,
        0.0,
        1.0
      ],
      "name": "Perman_Blue"
    },
    {
      "mesh": 0,
      "name": "Perman_Blue_Perman_Blue.met_0"
    },
    {
      "mesh": 1,
      "name": "Perman_Blue_Perman_Blue.lens_0"
    }
  ],
  "samplers": [
    {
      "magFilter": 9729,
      "minFilter": 9987,
      "wrapS": 10497,
      "wrapT": 10497
    }
  ],
  "scene": 0,
  "scenes": [
    {
      "name": "Sketchfab_Scene",
      "nodes": [
        0
      ]
    }
  ],
  "textures": [
    {
      "sampler": 0,
      "source": 0
    },
    {
      "sampler": 0,
      "source": 1
    }
  ]
}
